{
  "accessors": [
    {
      "bufferView": 2,
      "componentType": 5126,
      "count": 65532,
      "max": [
        0.15453200042247772,
        0.12608200311660767,
        0.3881649971008301
      ],
      "min": [
        -0.055879998952150345,
        -0.13604100048542023,
        -0.284512996673584
      ],
      "type": "VEC3"
    },
    {
      "bufferView": 2,
      "byteOffset": 786384,
      "componentType": 5126,
      "count": 65532,
      "max": [
        1.0,
        1.0,
        1.0
      ],
      "min": [
        -0.9999570250511169,
        -1.0,
        -1.0
      ],
      "type": "VEC3"
    },
    {
      "bufferView": 3,
      "componentType": 5126,
      "count": 65532,
      "max": [
        0.999993085861206,
        1.0,
        0.9999933242797852,
        1.0
      ],
      "min": [
        -1.0,
        -0.9999960064888,
        -0.999972403049469,
        -1.0
      ],
      "type": "VEC4"
    },
    {
      "bufferView": 1,
      "componentType": 5126,
      "count": 65532,
      "max": [
        0.9996230006217957,
        0.9996230006217957
      ],
      "min": [
        0.0003769999893847853,
        0.0003769999893847853
      ],
      "type": "VEC2"
    },
    {
      "bufferView": 0,
      "componentType": 5125,
      "count": 289080,
      "type": "SCALAR"
    },
    {
      "bufferView": 2,
      "byteOffset": 1572768,
      "componentType": 5126,
      "count": 65532,
      "max": [
        0.2159850001335144,
        0.12172400206327438,
        0.35199400782585144
      ],
      "min": [
        -0.1467290073633194,
        -0.13627900183200836,
        -0.47921299934387207
      ],
      "type": "VEC3"
    },
    {
      "bufferView": 2,
      "byteOffset": 2359152,
      "componentType": 5126,
      "count": 65532,
      "max": [
        1.0,
        0.9999999403953552,
        0.9999988079071045
      ],
      "min": [
        -1.0,
        -1.0,
        -1.0
      ],
      "type": "VEC3"
    },
    {
      "bufferView": 3,
      "byteOffset": 1048512,
      "componentType": 5126,
      "count": 65532,
      "max": [
        0.9999504685401917,
        0.9999982714653015,
        0.9999770522117615,
        1.0
      ],
      "min": [
        -0.9999990463256836,
        -0.9999999403953552,
        -0.9999897480010986,
        -1.0
      ],
      "type": "VEC4"
    },
    {
      "bufferView": 1,
      "byteOffset": 524256,
      "componentType": 5126,
      "count": 65532,
      "max": [
        0.9996230006217957,
        0.9996230006217957
      ],
      "min": [
        0.0003769999893847853,
        0.0003769999893847853
      ],
      "type": "VEC2"
    },
    {
      "bufferView": 0,
      "byteOffset": 1156320,
      "componentType": 5125,
      "count": 294915,
      "type": "SCALAR"
    },
    {
      "bufferView": 2,
      "byteOffset": 3145536,
      "componentType": 5126,
      "count": 65532,
      "max": [
        0.30098700523376465,
        0.13705399632453918,
        0.5887539982795715
      ],
      "min": [
        -0.16906699538230896,
        -0.11045800149440765,
        -0.01377199962735176
      ],
      "type": "VEC3"
    },
    {
      "bufferView": 2,
      "byteOffset": 3931920,
      "componentType": 5126,
      "count": 65532,
      "max": [
        1.0,
        0.9999958276748657,
        1.0
      ],
      "min": [
        -1.0,
        -1.0,
        -1.0
      ],
      "type": "VEC3"
    },
    {
      "bufferView": 3,
      "byteOffset": 2097024,
      "componentType": 5126,
      "count": 65532,
      "max": [
        0.9999865293502808,
        1.0,
        0.9999995231628418,
        1.0
      ],
      "min": [
        -1.0,
        -0.9999974966049194,
        -0.9999834299087524,
        -1.0
      ],
      "type": "VEC4"
    },
    {
      "bufferView": 1,
      "byteOffset": 1048512,
      "componentType": 5126,
      "count": 65532,
      "max": [
        0.9996230006217957,
        0.9996230006217957
      ],
      "min": [
        0.0003769999893847853,
        0.0003769999893847853
      ],
      "type": "VEC2"
    },
    {
      "bufferView": 0,
      "byteOffset": 2335980,
      "componentType": 5125,
      "count": 258735,
      "type": "SCALAR"
    },
    {
      "bufferView": 2,
      "byteOffset": 4718304,
      "componentType": 5126,
      "count": 65532,
      "max": [
        0.07532399892807007,
        0.1286270022392273,
        0.588824987411499
      ],
      "min": [
        -0.30098700523376465,
        -0.12754200398921967,
        -0.5941010117530823
      ],
      "type": "VEC3"
    },
    {
      "bufferView": 2,
      "byteOffset": 5504688,
      "componentType": 5126,
      "count": 65532,
      "max": [
        1.0,
        1.0,
        1.0
      ],
      "min": [
        -1.0,
        -1.0,
        -1.0
      ],
      "type": "VEC3"
    },
    {
      "bufferView": 3,
      "byteOffset": 3145536,
      "componentType": 5126,
      "count": 65532,
      "max": [
        0.9999843835830688,
        0.9999228119850159,
        0.9999900460243225,
        1.0
      ],
      "min": [
        -1.0,
        -0.9999803304672241,
        -0.9999886751174927,
        -1.0
      ],
      "type": "VEC4"
    },
    {
      "bufferView": 1,
      "byteOffset": 1572768,
      "componentType": 5126,
      "count": 65532,
      "max": [
        0.9996230006217957,
        0.9996230006217957
      ],
      "min": [
        0.0003769999893847853,
        0.0003769999893847853
      ],
      "type": "VEC2"
    },
    {
      "bufferView": 0,
      "byteOffset": 3370920,
      "componentType": 5125,
      "count": 282060,
      "type": "SCALAR"
    },
    {
      "bufferView": 2,
      "byteOffset": 6291072,
      "componentType": 5126,
      "count": 65532,
      "max": [
        0.16658200323581696,
        0.1310649961233139,
        0.5922030210494995
      ],
      "min": [
        -0.16457100212574005,
        -0.1057170033454895,
        0.1561640053987503
      ],
      "type": "VEC3"
    },
    {
      "bufferView": 2,
      "byteOffset": 7077456,
      "componentType": 5126,
      "count": 65532,
      "max": [
        1.0,
        0.9999940395355225,
        1.0
      ],
      "min": [
        -1.0,
        -0.9999737739562988,
        -1.0
      ],
      "type": "VEC3"
    },
    {
      "bufferView": 3,
      "byteOffset": 4194048,
      "componentType": 5126,
      "count": 65532,
      "max": [
        0.9999732375144958,
        0.999994695186615,
        0.999980092048645,
        1.0
      ],
      "min": [
        -0.9999884963035583,
        -0.999999463558197,
        -0.9999675750732422,
        -1.0
      ],
      "type": "VEC4"
    },
    {
      "bufferView": 1,
      "byteOffset": 2097024,
      "componentType": 5126,
      "count": 65532,
      "max": [
        0.9996230006217957,
        0.9996230006217957
      ],
      "min": [
        0.0003769999893847853,
        0.0003769999893847853
      ],
      "type": "VEC2"
    },
    {
      "bufferView": 0,
      "byteOffset": 4499160,
      "componentType": 5125,
      "count": 262221,
      "type": "SCALAR"
    },
    {
      "bufferView": 2,
      "byteOffset": 7863840,
      "componentType": 5126,
      "count": 24388,
      "max": [
        0.13556599617004395,
        0.13732300698757172,
        0.46379101276397705
      ],
      "min": [
        -0.07962699979543686,
        -0.10991200059652328,
        0.16130100190639496
      ],
      "type": "VEC3"
    },
    {
      "bufferView": 2,
      "byteOffset": 8156496,
      "componentType": 5126,
      "count": 24388,
      "max": [
        0.9999005198478699,
        1.0,
        1.0
      ],
      "min": [
        -1.0,
        -0.9999718070030212,
        -1.0
      ],
      "type": "VEC3"
    },
    {
      "bufferView": 3,
      "byteOffset": 5242560,
      "componentType": 5126,
      "count": 24388,
      "max": [
        0.9999954700469971,
        0.99961918592453,
        0.999993085861206,
        1.0
      ],
      "min": [
        -1.0,
        -0.9998728036880493,
        -0.9999769330024719,
        -1.0
      ],
      "type": "VEC4"
    },
    {
      "bufferView": 1,
      "byteOffset": 2621280,
      "componentType": 5126,
      "count": 24388,
      "max": [
        0.9996230006217957,
        0.9988679885864258
      ],
      "min": [
        0.0003769999893847853,
        0.0003769999893847853
      ],
      "type": "VEC2"
    },
    {
      "bufferView": 0,
      "byteOffset": 5548044,
      "componentType": 5125,
      "count": 94848,
      "type": "SCALAR"
    }
  ],
  "asset": {
    "extras": {
      "author": "suddel (https://sketchfab.com/suddel13)",
      "license": "CC-BY-4.0 (http://creativecommons.org/licenses/by/4.0/)",
      "source": "https://sketchfab.com/3d-models/sexy-frozen-queen-c7814f7634124955833ad090db347d7d",
      "title": "Sexy Frozen Queen"
    },
    "generator": "Sketchfab-16.73.0",
    "version": "2.0"
  },
  "bufferViews": [
    {
      "buffer": 0,
      "byteLength": 5927436,
      "name": "floatBufferViews",
      "target": 34963
    },
    {
      "buffer": 0,
      "byteLength": 2816384,
      "byteOffset": 5927436,
      "byteStride": 8,
      "name": "floatBufferViews",
      "target": 34962
    },
    {
      "buffer": 0,
      "byteLength": 8449152,
      "byteOffset": 8743820,
      "byteStride": 12,
      "name": "floatBufferViews",
      "target": 34962
    },
    {
      "buffer": 0,
      "byteLength": 5632768,
      "byteOffset": 17192972,
      "byteStride": 16,
      "name": "floatBufferViews",
      "target": 34962
    }
  ],
  "buffers": [
    {
      "byteLength": 22825740,
      "uri": "scene.bin"
    }
  ],
  "images": [
    {
      "uri": "textures/Material_baseColor.png"
    },
    {
      "uri": "textures/Material_metallicRoughness.png"
    },
    {
      "uri": "textures/Material_normal.png"
    }
  ],
  "materials": [
    {
      "doubleSided": true,
      "name": "Material",
      "normalTexture": {
        "index": 2
      },
      "pbrMetallicRoughness": {
        "baseColorTexture": {
          "index": 0
        },
        "metallicRoughnessTexture": {
          "index": 1
        }
      }
    }
  ],
  "meshes": [
    {
      "name": "Object_0",
      "primitives": [
        {
          "attributes": {
            "NORMAL": 1,
            "POSITION": 0,
            "TANGENT": 2,
            "TEXCOORD_0": 3
          },
          "indices": 4,
          "material": 0,
          "mode": 4
        }
      ]
    },
    {
      "name": "Object_1",
      "primitives": [
        {
          "attributes": {
            "NORMAL": 6,
            "POSITION": 5,
            "TANGENT": 7,
            "TEXCOORD_0": 8
          },
          "indices": 9,
          "material": 0,
          "mode": 4
        }
      ]
    },
    {
      "name": "Object_2",
      "primitives": [
        {
          "attributes": {
            "NORMAL": 11,
            "POSITION": 10,
            "TANGENT": 12,
            "TEXCOORD_0": 13
          },
          "indices": 14,
          "material": 0,
          "mode": 4
        }
      ]
    },
    {
      "name": "Object_3",
      "primitives": [
        {
          "attributes": {
            "NORMAL": 16,
            "POSITION": 15,
            "TANGENT": 17,
            "TEXCOORD_0": 18
          },
          "indices": 19,
          "material": 0,
          "mode": 4
        }
      ]
    },
    {
      "name": "Object_4",
      "primitives": [
        {
          "attributes": {
            "NORMAL": 21,
            "POSITION": 20,
            "TANGENT": 22,
            "TEXCOORD_0": 23
          },
          "indices": 24,
          "material": 0,
          "mode": 4
        }
      ]
    },
    {
      "name": "Object_5",
      "primitives": [
        {
          "attributes": {
            "NORMAL": 26,
            "POSITION": 25,
            "TANGENT": 27,
            "TEXCOORD_0": 28
          },
          "indices": 29,
          "material": 0,
          "mode": 4
        }
      ]
    }
  ],
  "nodes": [
    {
      "children": [
        1
      ],
      "matrix": [
        1.0,
        0.0,
        0.0,
        0.0,
        0.0,
        2.220446049250313e-16,
        -1.0,
        0.0,
        0.0,
        1.0,
        2.220446049250313e-16,
        0.0,
        0.0,
        0.0,
        0.0,
        1.0
      ],
      "name": "Sketchfab_model"
    },
    {
      "children": [
        2,
        3,
        4,
        5,
        6,
        7
      ],
      "name": "57f2dbc87abdd88aa7eb5547613c2981.obj.cleaner.materialmerger.gles"
    },
    {
      "mesh": 0,
      "name": "Object_2"
    },
    {
      "mesh": 1,
      "name": "Object_3"
    },
    {
      "mesh": 2,
      "name": "Object_4"
    },
    {
      "mesh": 3,
      "name": "Object_5"
    },
    {
      "mesh": 4,
      "name": "Object_6"
    },
    {
      "mesh": 5,
      "name": "Object_7"
    }
  ],
  "samplers": [
    {
      "magFilter": 9729,
      "minFilter": 9987,
      "wrapS": 10497,
      "wrapT": 10497
    }
  ],
  "scene": 0,
  "scenes": [
    {
      "name": "Sketchfab_Scene",
      "nodes": [
        0
      ]
    }
  ],
  "textures": [
    {
      "sampler": 0,
      "source": 0
    },
    {
      "sampler": 0,
      "source": 1
    },
    {
      "sampler": 0,
      "source": 2
    }
  ]
}
